<?xml version="1.0" encoding="UTF-8"?>
<svg id="_レイヤー_2" data-name="レイヤー 2" xmlns="http://www.w3.org/2000/svg" viewBox="0 0 483.96 390.71">
  <defs>
    <style>
      .cls-1 {
        fill: #6cb79f;
      }

      .cls-1, .cls-2, .cls-3, .cls-4, .cls-5, .cls-6, .cls-7, .cls-8, .cls-9, .cls-10, .cls-11, .cls-12, .cls-13 {
        stroke-miterlimit: 10;
      }

      .cls-1, .cls-3, .cls-4, .cls-6, .cls-10, .cls-13 {
        stroke: #f1f2ec;
        stroke-width: .75px;
      }

      .cls-2 {
        fill: #bed39c;
        stroke: #8b9282;
      }

      .cls-2, .cls-7, .cls-8, .cls-9, .cls-11 {
        stroke-width: .25px;
      }

      .cls-3 {
        fill: #7b933f;
      }

      .cls-4 {
        fill: #69aeb1;
      }

      .cls-5, .cls-10 {
        fill: #97a65c;
      }

      .cls-5, .cls-12 {
        stroke: #f2ebea;
      }

      .cls-6 {
        fill: #a4a985;
      }

      .cls-7 {
        fill: #c1ded2;
        stroke: #89928b;
      }

      .cls-8 {
        fill: #bac5d2;
      }

      .cls-8, .cls-9 {
        stroke: #868a8f;
      }

      .cls-9 {
        fill: #bfd9da;
      }

      .cls-14 {
        stroke: #dedcc2;
        stroke-linecap: round;
        stroke-linejoin: round;
      }

      .cls-14, .cls-11 {
        fill: #deddba;
      }

      .cls-11 {
        stroke: #95948e;
      }

      .cls-12 {
        fill: #c6c380;
      }

      .cls-13 {
        fill: #678aa4;
      }
    </style>
  </defs>
  <g id="_レイヤー_1-2" data-name="レイヤー 1">
    <path class="cls-5" d="M261.56,82c.34,3.08-6.24,6.01-5.44,9.05.3,1.15,1.32.93,5.3,3.16,1.34.75,5.61,3.24,9.99,7.5.42.41.88.86,1.48,1.51,4.36,4.71,6.03,7.55,6.03,7.55,1.77,3.02,3.06,5.21,2.43,7.76-.57,2.27-2.6,4.62-4.73,4.64-3.2.04-5.89-5.21-5.9-5.2,0,0,1.12,1.23,1.98,2.86.67,1.28,1.72,3.28.95,4.9-.39.82-1.1,1.24-2.24,1.92-.35.21-1.76,1.05-2.96,1.18-3.44.39-6.9-4.82-7.01-4.73-.1.09,3.85,3.33,3.19,5.89-.44,1.69-2.88,3.04-4.96,2.85-.98-.09-1.91-.53-7.61-5.82-.79-.73-2.19-2.04-2.33-1.91-.31.28,6.54,6.26,5.12,9.51-.79,1.82-3.86,2.07-4.26,2.1-4.86.37-7.88-4.02-14.85-10.71-7.89-7.57-13.49-12.85-21.71-15.01-3.66-.97-7.87-1.32-9.16-1.44-2.09-.18-2.74-.13-13.6-.06-10.33.07-9.96.03-10.46.08-2.19.2-4.41-.13-6.59.08-1.3.12-2.61.32-3.21-.42-.64-.78-.13-2.17,0-2.55,0-.02,0-5.27,0-15.77,0-15.21-.08-17.09,1.35-17.8,1.7-.84,3.41,1.02,8.98,3.62,3.98,1.86,6.91,2.67,12.77,4.31,7.82,2.17,9.83,1.75,16.25,2.4,5.32.54,5.91,1.44,9.42,1.35,3.14-.09,5.48-.76,6.02-.92,3.84-1.14,3.94-2.32,7.99-3.85,1.6-.6,3.77-1.03,8.1-1.88,4.18-.82,6.27-1.23,7.3-1.25,5.3-.13,12.05,2.13,12.38,5.09Z"/>
    <path class="cls-12" d="M329.91,100.34c-.78.9-2.13.7-4.29.8-2.01.09-3.98.65-5.97.92-4.18.58-8.89,1.22-13.49,2.26,0,0-5.69,1.29-18.97,6.08-.69.25-1.35.5-1.35.5-.96.38-1.38.59-1.92.73-3.66.97-7.81-3.04-10.03-5.13-10.77-10.18-16.22-15.25-19.46-14.11-2.35.82-1.55,3.73-5.51,7.06-2.64,2.22-6.86,3.81-8.73,2.29-1.39-1.14-1.06-3.67-.83-5.4.13-.95.4-2.15,4.54-10.1.25-.47.39-.75.65-1.12,1.15-1.64,2.57-2.3,5.75-3.74,4.59-2.07,5.03-2.21,5.86-2.21,1.82,0,3.14.72,4.18,1.27,6.98,3.7,10.46,5.55,13.54,5.96,2.46.32,3.98-.29,8.34-1.73,14.59-4.83,13.19-3.17,26.96-8.03,8.02-2.83,12.03-4.25,13.77-5.24,3.37-1.93,5.87-3.94,7.2-3.04,1,.68.56,2.45.24,7.18-.24,3.47-.24,5.94-.24,9.86,0,7.64,0,11.47,0,11.5.19.96.56,2.49-.26,3.44Z"/>
    <path class="cls-12" d="M221.41,118.09c-1.24.76-2.59.48-3.51.28-.9-.19-2.93-.62-3.9-2.39-1.1-2.01-.39-4.89,1.25-5.93,2.63-1.68,7.74,1.32,7.97,4.48.09,1.25-.57,2.79-1.82,3.56Z"/>
    <path class="cls-12" d="M238.09,124.6c.69-.67,3.22-3.12,2.8-5.6-.19-1.11-.84-1.97-.84-1.97s-.67-.89-1.67-1.34c-2.38-1.08-6.16,1.48-8.25,3.87-1.19,1.36-2.39,2.73-2.18,4.59.17,1.51,1.22,2.96,2.59,3.55,3.02,1.29,6.49-2.07,7.55-3.1Z"/>
    <path class="cls-12" d="M246.66,130.31c2.49-2.6,4.88-7.42,3.14-9.44-1.61-1.86-6.07-.61-8.63.87-3.39,1.96-6.86,6.31-5.55,9.47.71,1.71,2.54,2.37,2.83,2.47,3.77,1.29,7.57-2.7,8.21-3.36Z"/>
    <path class="cls-3" d="M.38,91.41v-.5C.38,41.14,37.64.38,90.41.38c32.51,0,52.02,11.25,68.78,27.26l-19.76,22.76c-14.25-13-29.01-21.51-49.27-21.51-33.02,0-57.52,27.26-57.52,61.52v.5c0,34.27,24.26,62.03,57.77,62.03,21.51,0,35.27-8.5,50.27-22.51l19.76,20.01c-18.25,19.01-38.26,31.01-71.03,31.01C38.14,181.45.38,141.68.38,91.41Z"/>
    <path class="cls-10" d="M160.2,91.41v-.5C160.2,41.64,198.21.38,251.98.38s91.28,40.77,91.28,90.03v.5c0,49.27-38.02,90.54-91.79,90.54s-91.28-40.77-91.28-90.03ZM311.01,91.41v-.5c0-34.01-24.76-62.03-59.53-62.03s-59.02,27.51-59.02,61.52v.5c0,34.01,24.76,62.03,59.53,62.03s59.02-27.51,59.02-61.52Z"/>
    <path class="cls-6" d="M348.03,153.44l18.51-22.01c16.76,14.51,33.76,22.76,55.27,22.76,19,0,31.01-9.01,31.01-22.01v-.5c0-12.5-7-19.26-39.51-26.76-37.27-9.01-58.28-20.01-58.28-52.27v-.5c0-30.01,25.01-50.77,59.77-50.77,25.51,0,45.77,7.75,63.52,22.01l-16.5,23.26c-15.76-11.75-31.52-18.01-47.52-18.01-18.01,0-28.51,9.25-28.51,20.76v.5c0,13.51,8,19.5,41.77,27.51,37.01,9.01,56.02,22.26,56.02,51.27v.5c0,32.77-25.76,52.27-62.53,52.27-26.76,0-52.02-9.25-73.03-28.01Z"/>
    <path class="cls-13" d="M12.63,362.32l18.51-22.01c16.76,14.51,33.76,22.76,55.27,22.76,19,0,31.01-9.01,31.01-22.01v-.5c0-12.5-7-19.26-39.51-26.76-37.27-9.01-58.28-20.01-58.28-52.27v-.5c0-30.01,25.01-50.77,59.77-50.77,25.51,0,45.77,7.75,63.52,22.01l-16.5,23.26c-15.76-11.75-31.52-18.01-47.52-18.01-18.01,0-28.51,9.25-28.51,20.76v.5c0,13.51,8,19.5,41.77,27.51,37.01,9.01,56.02,22.26,56.02,51.27v.5c0,32.77-25.76,52.27-62.53,52.27-26.76,0-52.02-9.25-73.03-28.01Z"/>
    <path class="cls-4" d="M186.21,215.26h129.8v27.51h-99.04v45.51h87.79v27.77h-87.79v46.77h100.29v27.51h-131.05v-175.07Z"/>
    <path class="cls-11" d="M422.89,58.76c-.02-.08-.06-.3-.06-.3,0-.05-.02-.1-.03-.15-.12-.59-.26-1.22-.26-1.22-.18-.81-.36-1.48-.56-2.21-.67-2.53-1.11-4.16-1.6-4.99-1.13-3.13-1.86-3.9-2.3-4.31-.53-.49-1.99-1.8-4.22-2.08-.2-.03-2.33-.27-4.3.8-.62.34-1.23.67-1.85,1.32-.44.47-.6.8-1.15,1.12-.48.28-.67.24-1.32.49-.95.37-1.97,1.05-1.88,1.34.06.18.51.05,1.78.31,0,0,1.05.22,1.38.74.01.02.02.04.03.05.12.24.09.47.03.86-.1.65-.24,1.12-.63,1.61-.03.04-.05.07-.07.08-2.2,1.27-5.06,3.29-7.75,6.4-5.23,6.04-6.69,12.62-7.16,15.77-.92.83-2.15,1.85-3.9,3.15-1.5,1.12-2.35,1.67-3.52,2.89-.56.58-1.83,1.98-1.47,2.58.2.33.71.13,2.01.58.35.12.79.28,1.25.58,1.01.66,1.03,1.33,1.53,1.56.98.46,2.64-1.01,4.34-2.76,2.49-2.57,2.86-3.49,5.49-6.31,0,0,1.95-2.08,3.84-2.94.77-.31,1.45-.37,2.03-.31,0,0,.02,0,.03,0,.02,0,.03,0,.03,0,.21.03.32.04.36.05.41.11.53,1.1.56,1.36.15,1.37-.03,2.17.07,2.19.11.02.61-.97.59-2.2-.01-1.02-.36-1.69-.3-1.71.09-.03.86,1.26,1.15,2.96.03.18.06.86.13,2.2.07,1.47.07,1.92-.1,2.5-.18.65-.46,1.08-.39,1.12.07.04.5-.43.79-1.02.32-.65.37-1.25.43-1.97.06-.68.03-1.21,0-1.65-.02-.37-.05-.92-.18-1.61-.19-1.04-.41-1.43-.28-1.51,0,0,0,0,0,0,.24-.09.88.47,1.64,1.45.89,1.15,1.2,1.91,1.33,1.86.11-.04,0-.69-.24-1.3-.52-1.28-1.37-1.65-1.22-1.97.07.02.22.06.4.09.38.08,2.22.42,5.51-.2.58-.11.86-.18,1-.02.47.54-1.47,2.73-1.22,2.96.13.12.89-.36,1.48-1.05.68-.8.82-1.52.99-1.48.2.04.19,1.08.07,1.97-.18,1.27-.59,2.26-.86,2.83-.77,1.65-1.58,2.38-1.48,2.47.13.11,1.6-.84,2.37-2.47.26-.55.39-1.11.65-2.23.37-1.59.39-2.34.57-2.35.21,0,.51,1,.55,1.99.06,1.25-.31,2.12-.15,2.18.12.04.43-.36.59-.81.15-.46.03-.64.06-1.68.02-.61.06-.61.02-.84-.06-.32-.19-.51-.58-1.16-.3-.51-.45-.77-.46-.8-.24-.9,1.6-2,3.59-3.72,1.43-1.24,2.18-1.81,2.42-2.19,0,0,1.61-2.53.37-8.88Z"/>
    <g>
      <path class="cls-11" d="M439.41,148.12c.16.03.34.09,1.57,1.22.99.91,1.59,1.53,2.44,2.39,1.34,1.35,1.76,1.74,2.53,2.63.81.95,1.22,1.43,1.28,1.81.3,1.92-2.68,4.64-4.67,4.17-.25-.06-.3-.13-1.7-1.47-2-1.92-2.34-2.21-3.26-3.17-.08-.09-.62-.66-1.31-1.44-.69-.79-1.04-1.19-1.1-1.36-.64-1.88,2.9-4.99,4.23-4.77Z"/>
      <line class="cls-14" x1="436.45" y1="156.65" x2="426.89" y2="157.26"/>
      <line class="cls-14" x1="437.97" y1="158.21" x2="438.6" y2="168.01"/>
      <g>
        <line class="cls-14" x1="447.86" y1="137.84" x2="446.93" y2="135.21"/>
        <line class="cls-14" x1="452.99" y1="129.17" x2="446.9" y2="135.17"/>
        <line class="cls-14" x1="452.18" y1="125.21" x2="452.99" y2="129.17"/>
      </g>
      <g>
        <line class="cls-14" x1="439.44" y1="146.78" x2="439.02" y2="144.33"/>
        <line class="cls-14" x1="444.2" y1="139.19" x2="439.02" y2="144.33"/>
        <line class="cls-14" x1="442.99" y1="134.45" x2="444.2" y2="139.19"/>
      </g>
      <g>
        <line class="cls-14" x1="427.01" y1="151.51" x2="430.93" y2="152.86"/>
        <line class="cls-14" x1="435.77" y1="148.24" x2="430.93" y2="152.86"/>
        <line class="cls-14" x1="439.11" y1="147.78" x2="435.77" y2="148.24"/>
      </g>
      <g>
        <line class="cls-14" x1="458.04" y1="147.18" x2="460.71" y2="148.17"/>
        <line class="cls-14" x1="466.94" y1="142.1" x2="460.74" y2="148.2"/>
        <line class="cls-14" x1="470.95" y1="142.99" x2="466.94" y2="142.1"/>
      </g>
      <g>
        <line class="cls-14" x1="448.88" y1="155.39" x2="451.36" y2="155.85"/>
        <line class="cls-14" x1="456.67" y1="150.68" x2="451.36" y2="155.85"/>
        <line class="cls-14" x1="461.46" y1="151.98" x2="456.67" y2="150.68"/>
      </g>
      <g>
        <line class="cls-14" x1="443.93" y1="167.99" x2="442.61" y2="163.99"/>
        <line class="cls-14" x1="447.39" y1="159.14" x2="442.61" y2="163.99"/>
        <line class="cls-14" x1="447.91" y1="155.75" x2="447.39" y2="159.14"/>
      </g>
      <path class="cls-11" d="M435.48,153.9c.37.02.44.21,1.73,1.44,1,.95,1.63,1.47,2.82,2.73.75.79.84.95.88,1.17.19,1.15-1.25,2.76-2.7,2.8-.9.02-1.64-.73-3.13-2.25-1.29-1.32-1.94-2-1.99-2.83-.09-1.5,1.28-3.11,2.38-3.05Z"/>
      <path class="cls-11" d="M457.38,147.58c-6.02,6.43-8.36,8.95-9.9,8.27-.22-.1-.16-.14-2.68-2.72q-.59-.6-1.35-1.37c-2.47-2.51-3.7-3.77-3.79-4.11-.36-1.39.97-2.79,4.96-6.49,7.49-6.94,8.82-7.57,9.69-7.94.94-.4,7.22-3.04,9.45-.55,1.57,1.75.36,5.19-.18,6.71-.89,2.53-2.1,3.82-6.2,8.2Z"/>
    </g>
    <path class="cls-1" d="M350.28,215.26h129.8v27.51h-99.04v45.51h87.78v27.77h-87.78v46.77h100.29v27.51h-131.05v-175.07Z"/>
    <path class="cls-9" d="M225.81,345.83c.06.98-.19,1.79-.41,2.55-.55,1.82-1.39,2.7-2.19,3.93-1.47,2.25-2.93,5.89-1.97,6.79.88.83,3.72-.85,4.29-1.19,1.44-.85,1.69-1.39,4.13-3.66,2.49-2.31,3.9-3.13,5.28-3.69,1.81-.72,2.95-.7,3.21-.29.14.22,0,.54.29.99.16.26.29.3.58.59.33.33.51.64.71.98.35.59.5,1.09.66,1.63.2.66.08.49.45,2.12.15.65.21.87.21,1.27,0,.24-.03.42.02.71,0,.05.12.62.32.8.66.57,3.58-1.84,6.35-3.52.38-.23.41-.24,1.66-.98,1.22-.73,1.27-.77,1.48-.83.96-.27,1.49.2,2.79.41.26.04.5.07,2.8-.1,3.46-.25,4.43-.41,4.64.04.13.27-.13.51-.54,1.4,0,0-.42.91-.85,2.69-.37,1.53-.54,4.55.62,5.12.99.49,2.65-.97,4.93-2.97,1.14-1,2-1.96,2.88-2.95.67-.75.97-1.14,1.21-1.51.59-.88.49-1.02.84-1.33.43-.4.97-.53,2.77-.67,1.1-.08,1.65-.12,2.3-.12,2.96,0,6.03-.52,8.17-.88,1.18-.2,2.46-.45,2.54-.22.12.38-3.28,1.24-3.83,3.36-.1.37-.12.83-.43,1.57-.4.95-.87,1.4-.74,1.56.2.26,1.67-.58,1.82-.66,1.63-.93,2.08-1.64,4.55-3.68.85-.7,1.01-.79,1.41-1.21.75-.77.94-1.2,1.59-1.54.46-.24.81-.26,1.45-.34,0,0,.98-.11,3.61-.55.78-.13,1.89-.32,3.21-.73,1.11-.34,1.13-.46,2.62-1.02,1.37-.52,4.45-1.6,5.82-2.46.31-.2.67-.47.63-.56-.03-.06-.23-.03-.24-.06,0-.03.2-.06.34-.13.4-.18.51-.73.56-.96.03-.13.14-.66-.09-1.15-.23-.49-.64-.61-1.76-1.17-1.21-.6-.96-.57-1.87-1-.94-.44-1.5-.61-2.43-.94-.54-.19-1.43-.56-3.2-1.29-4.85-2-4.86-2.18-6.46-2.72-1.33-.45-2.72-.7-5.49-1.21-2.19-.4-4.93-1.01-8.55-1.17-2.52-.11-3.37.06-5.36-.33-2.87-.57-2.95-1.29-6.31-2.28-1.62-.48-3.56-.73-7.44-1.23-3.43-.44-4.41-.42-4.5-.13-.09.29,1.24.5,2.26,1.85.48.64.33.77,1.18,2.47.72,1.44.99,1.66.88,2.02-.21.66-1.38.71-3.49,1.01-2.41.35-4.78.93-7.18,1.36-2.63.47-2.8.51-3.31.48-2.2-.13-2.94-1.08-4.36-.6-1.17.4-2.16,1.6-1.96,2.26.08.28.35.34.32.51-.07.42-1.81.58-3.36.41-.63-.07-2.38-.28-4.25-1.4-.97-.58-1.11-.89-2.86-2.05-.78-.52-1.43-.91-1.86-1.16-.37-.29-.92-.68-1.59-1.12,0,0-.57-.37-1.09-.67-.78-.45-3.29-1.9-3.89-1.35-.65.6,1.09,3.48,1.66,4.42,2.09,3.45,3.7,4.2,3.83,6.47Z"/>
    <g>
      <path class="cls-2" d="M56.51,104.47s0,.02,0,.03c0-.02,0-.03,0-.03Z"/>
      <path class="cls-2" d="M126.44,153.68c-.15-.42-.65-1.03-1.34-1.05-.34-.01-.59.16-.91.28l-3.89,1.47c-1.5.57-3.04,1.19-4.92,1.09l-1.13-.65c-.15-.18-.32-.43-.47-.76-.12-.27-.19-.52-.24-.72l-7.3-7.26-5.06-4.98-5.85-5.41c-3.1-2.86-7.46-1.16-11.02-.02l.18-.7,5.29-20.58c-.06-.46-.95-.49-1.24-.37-.42.16-.89.55-1.02,1.18l-4.93,18.5c-.98.36-1.97.72-2.97,1.08-.95-2.47-5.9-3.34-6.73-2.87l-4.93,2.79c-.03-.09-.08-.25-.16-.37-.04-.06-.08-.11-.15-.15-.15-.08-.32,0-.37.01-.26.1-2.33.59-5.28,1.29-.03-.18,0-.42-.09-.55-2.98-4.25-4.76-8.76-7.99-12.71-.14-.18-.29-.36-.43-.54-1.3-1.07-2.16-2.67-3.86-3.24v-.48s.28-2.85.28-2.85c.11.04.27.09.46.13.24.06,2.24.52,3.41-.28,1.11-.76.56-1.95,1.76-3.61.36-.49.88-.98,1.66-1.41l-.77-2.27c-.17-.5-.37-1.26-.35-2.19.01-.78.17-1.34.22-1.51.36-1.41-.07-4.92-2.47-6.98-2.53-2.17-6.14-1.78-8.41-.78-.44.2-3.05,1.39-4.29,4.19-1.66,3.75.55,7.62,1.07,9.6.15.57.78.9.79,1.48l-.87,4.3c-.17-.05-.33-.1-.5-.15-1.53,1.98-2.78,4.26-3.36,6.68-.77,3.19-.44,6.44.68,9.55,1.07,2.98,3.53,7.58,5.27,10.12l4.71,6.86,2.14,2.73,2.2,2.23c.29.18.56.24.71.26.37.05.41-.06.93-.09.17-.01.25-.15.29-.11.04.03,0,.1.03.22.02.09.07.16.11.21,4.61,3.34,10.85,2.95,16.25.74,1.17-.48,1.96-.51,3.09-.5l11.63.08c1.27,0,2.94-.05,4.12.79.88.63.92,2.01,1.25,2.83l1.86,4.65.05.22,6.68,14.35.83.66.21.16c0,.07,0,.07,0,.05,0,0,0-.01,0-.05h0s0,0,0,0l.12.27c.22.49.14.88.14,1.47l-.02,3.22c0,1.06,1.21,1.19,2.08,1.19h9.71c1.13.01,2.35.13,3.44-.14.74-.18.61-.98.53-1.36-.11-.47-.39-.94-.93-1.13l-5.86-2.05-2.63-1.46c-.59-.33-.8-.95-.69-1.42.05-.22.43-.58.32-.95l-7.15-23.29.04-.06s.05.03.11-.02c3.16,2.45,5.55,4.26,6.7,5.22.4.33,1.31,1.11,2.67,1.33.3.05.55.05.7.05l.29-.07,3.63,4.54c.12.15.53.23.67.22.19-.01.54-.1.78-.31l3.45-2.95,4.99-3.99c1.58-.79,2.34-2.1,2.04-2.95ZM69.28,138.22c1.3-.5,2.91-.57,3.76-1.76l.18-.38c.73-1.52,3.05-1.59,3.94-1.18l.19.09c.43.19.89.21,1.35.14-1.14.41-2.29.82-3.45,1.23-3.12,1.09-6.21,2.14-9.24,3.13l3.28-1.26Z"/>
    </g>
    <path class="cls-12" d="M231.09,119.16c.59-.57,2.76-2.67,2.4-4.79-.16-.95-.72-1.69-.72-1.69s-.58-.76-1.43-1.15c-2.04-.93-5.28,1.27-7.06,3.31-1.02,1.17-2.05,2.34-1.87,3.94.14,1.3,1.04,2.54,2.22,3.04,2.58,1.1,5.56-1.78,6.47-2.66Z"/>
    <path class="cls-7" d="M462.41,339.7l2.72-2.1c.63-.48.51-1.44.04-1.95-.51-.54-1.25-.51-1.88-.07l-1.52,1.06c-.25.18-.5.25-.69.04-.14-.15-.31-.35-.17-.61l-.14-1.62c.24-.9-.28-1.9-1.21-2.02-.09-.02-.18-.02-.28-.02.4-.63.06-1.46-.51-1.81-.63-.39-1.34-.16-1.83.43l-1.19,1.42c-.2.24-.42.37-.66.22-.18-.11-.4-.25-.32-.54l-.57-1.52c0-.86-.66-1.62-1.49-1.63.65-.68,1.35-1.27,2.03-1.93.54-.52.48-1.44.09-1.95-.43-.56-1.34-.79-1.91-.32l-1.45,1.2c-.21.17-.41.27-.61.18-.21-.09-.31-.29-.35-.55l-.44-3.29c-.12-.9-.96-1.33-1.78-1.41-.02.04-.05.07-.11.08-.9.16-1.49.9-1.38,1.81l.34,3.04.04.89c0,.18-.05.34-.17.43-.11.08-.29.15-.44.03l-.98-.75c.29-.46.59-.91.87-1.38.38-.64.09-1.52-.43-1.91-.56-.42-1.5-.41-1.92.19l-1.08,1.54c-.15.22-.33.37-.54.34-.23-.03-.38-.2-.48-.44l-1.29-3.06c-.36-.84-1.28-1.03-2.09-.89,0,.05-.03.08-.09.11-.83.39-1.2,1.26-.86,2.11l1.13,2.85.27.85c.06.17.04.34-.05.46-.08.11-.24.22-.42.15l-1.31-.53c-.21-.54-.67-.94-1.29-.99-.83-.06-1.52.55-1.59,1.47l-.08,1.03.12,2.98c.03.69-.57,1.1-1.24,1.08-.99-.03-1.94-.21-2.6.12l-.42-1.25c-.12-.36-.25-.69-.31-1.08-.13-.9-.95-1.52-1.82-1.34-.82.16-1.32.94-1.15,1.83l.2,1.01.9,2.84c.21.66-.26,1.21-.91,1.37-1.43.35-2.9.32-2.95,1.89-.02.49.32,1,.85,1.29.52.28,1.08.13,1.66.02,1.81-.34,3.66-.44,5.45.16,1.97.66,3.77,1.65,5.45,2.84.35.25.7.57,1.01.91-.46-.07-.92.06-1.28.43-.47.48-.62,1.41-.01,1.97l.03.03-1.5-.62c-.74-.3-1.5-.02-1.88.66-.32.58-.23,1.52.5,1.9l3.98,2.08c1.45.86,2.45,2.16,2.64,3.82,0,0-.02,0-.02-.01l-3.61-2.21c-2.09-1.28-3.35-3.19-4.09-5.49-.6-1.88-1.32-3.66-2.44-5.3-.47-.69-1.4-.73-2.03-.32-.6.4-.8,1.24-.42,1.91.67,1.16,2.03,3.51,1.22,3.92-.18.09-.45.11-.69.04l-.46-.13c-.49-.56-1.01-1.09-1.59-1.59-.64-.54-1.55-.34-2.04.23-.41.47-.42,1.16-.08,1.7-.11.26-.15.54-.07.82.13.46.51.92.95,1.09l1.2.48c.39.56.59,1.06.3,1.32-.15.14-.41.22-.65.22l-2.34-.02c-.56,0-1.07.19-1.37.63-.28.4-.39,1.03-.11,1.5.24.41.74.75,1.21.8l4.2.47c.54.06,1.3.2,1.95.4.01.15.03.3.09.45.19.47.59.71,1.06.77-.02.02-.03.05-.05.06l-1.05.76c-.64.47-.68,1.35-.23,1.94.46.6,1.24.63,1.92.25l1.88-1.05c2.45-1.09,4.8-.17,6.36,1.74.21.68.33,1.41.36,2.16.02.61.12,1.14.58,1.52.43.36.97.44,1.56.43h.06c.46.17.95.12,1.45-.02l1.69-.03c.6-.06,1.06-.39,1.33-.85l.1-.03c.86-.33,1.28-1.14,1.1-2.02-.08-.39-.1-.75-.09-1.09,1.11-1.49,3.18-2.02,5.37-2.02h2.03c.69,0,1.2-.61,1.24-1.23.04-.65-.3-1.32-1.01-1.46-.79-.15-1.49-.07-2.17-.17l1.44-.39c.66-.18,1-.9.87-1.52-.09-.45-.38-.85-.79-1.03,2.83-1.95,5.81-2.31,8.85-4.2.71-.44.98-1.24.6-1.93-.37-.67-1.16-.87-1.88-.5l-1.29.67c-.85.44-2.04.95-2.44.48-.09-.11-.11-.34-.05-.53.63-1.95,1.8-3.96,3.45-5.23ZM457.17,335.25l.66-.87c.03.65.03,1.28-.01,1.96-.09,1.64-.37,3.25-.83,4.8-.59.46-1.22.81-1.58.56-.12-.08-.19-.3-.18-.49.1-2.05.69-4.29,1.95-5.95ZM454.19,346.9c-.05.07-.09.14-.14.2-.14.19-.34.46-.57.53.23-.25.46-.5.7-.73ZM445.59,353.62c-.09-3.04.22-5.89,1.64-8.41.02.11.03.22.07.33.54,1.45.81,2.99.49,4.52-.2.96-.73,1.75-1.19,2.59l-.78,1.43c-.04.07-.1.11-.15.15-.04-.2-.06-.4-.07-.61ZM449.45,337.54l.63-3.54c.2-1.11.61-2.11,1.16-3.05,0,0,0,0,0,0,.27.75.45,1.45.62,2.25.27,1.23.41,2.48.46,3.73-.35-.13-.74-.13-1.08.11l-1.29.9c-.15.1-.33.1-.43,0-.11-.1-.1-.26-.07-.43ZM452.19,340.06c-.19,1.54-.55,3.06-1.13,4.53-.11.28-.27.7-.55.72-.31.03-.57-.37-.62-.65-.12-.71-.79-1.2-1.45-1.15.19-.22.36-.45.57-.66l3.18-2.79ZM446.48,335.21s0,.04-.01.06c-.29.03-.57.12-.77.37l-1,1.21c-.11.14-.29.18-.41.12-.14-.07-.16-.23-.18-.4l-.33-3.58c-.12-1.28.06-2.51.44-3.7,1.63,1.65,2.66,3.5,2.26,5.91ZM440.49,334.37c-.02.11-.03.23-.07.33-.4.86-2.74-1.5-2.89-4.25v-.07c1.48.98,2.57,2.22,2.97,3.98ZM432.43,335.44c.74.08,1.48.19,2.19.39.02.13.04.26.02.39-.09.56-1.17.17-2.21-.78ZM438.17,337.72c.78.6,1.5,1.26,2.18,1.97-.59.24-1.62-.71-2.18-1.97Z"/>
  </g>
  <g id="_レイヤー_2-2" data-name="レイヤー 2">
    <path class="cls-8" d="M78.97,363.84c.02-.26-.04-1.26-.3-2.14-.11-.35-.3-.61-.49-.9-.11-.18-.17-.36-.33-.52-.67-.69-1.39-1.3-2.17-1.88-.18-.4-.84-1.81-2.38-2.41-.5-.2-.97-.26-1.34-.27-.08-.06-.24-.16-.44-.19-.07,0-.13,0-.18,0l-.86.15c-1.38.32-2.72.67-4.12.81l-1.04.11c-.34.04-.64.05-.93.23-.04.02-.17-.08-.13-.12l1.25-.98c1.09.13,2.13-.09,3.12-.54.4-.18.77-.35,1.19-.47.29-.08.49-.34.55-.64.64-.23,1.2-.56,1.63-1.05.57-.65.82-1.54.61-2.37l-.26-1.01c-.06-.22-.21-.37-.32-.51-.13-.38-.19-.75-.38-1.12-.53-1.08-1.24-2.07-2.1-2.91-.27-.26-.58-.41-.92-.44-.37-.56-.8-1.02-1.29-1.44-.34-.26-.89-.61-1.63-.85-.66-.21-1.24-.26-1.64-.26-.51.03-1.31.36-1.2.69.02.07.08.19.22.19,1.09.04,2.06.52,2.79,1.34.37.41.71.84.84,1.4-.32-.14-.58-.33-.82-.55-.46-.42-.99-.62-1.6-.71-.95-.13-1.27-.73-1.53-.63-.27.1-.13.73.15,1.13.32.48.76.85,1.2,1.22l1.26,1.08c.36.31.63.66.87,1.07.48.8,1.06,1.5,1.73,2.13.35.33.7.59,1.1.85.09.06.05.29,0,.37-1.04-.4-1.7.21-2.63.48-.12.03.13-.47-.26-.63-.18-.08-.23-.2-.24-.39,0-.22-.1-.52-.32-.59-.16-.05-.23-.1-.25-.26-.03-.31-.25-.46-.54-.5-.25-.04-.26-.8-.76-.65-.3.09-.6.08-.85-.19l.16-.12c.36-.18.63-.49.67-.89.02-.2-.09-.38-.19-.47-.33-.3-.86-.05-1.28.26l-.57.43c-.14-.08-.21-.22-.3-.34-.16-.24-.44-.33-.71-.25-.4.12-.49-.3-1.21-.32-.35,0-.48-.66-1.15-.4-.11.04-.21.08-.35.07l-.24-.8c-.16-.55-.48-.97-.99-.83-.13.03-.27.18-.35.35-.16.4-.04.78.14,1.19-.27.03-.57-.04-.71-.26-.15-.23-.4-.31-.67-.18l-.35.18c-.17-.08-.4-.24-.57-.11l-.39.28c-.72-.35-.71.53-1.27.39-.33-.08-.42.32-.62.58-.7-.89-.9-1.95-2-2.3.02-.08.1-.26.18-.28l.73.02c1.24-.04,2.42-.32,3.56-.8.56-.23,1.16-.26,1.75-.3l.83-.05c.58-.04,1.15-.07,1.71-.21.54-.14,1.17-.6.98-.88-.07-.11-.16-.11-.28-.1-.5.03-.98-.11-1.43-.36-.5-.28-1.01-.38-1.56-.34-.34.02-.68.05-1.03-.06.45-.37.96-.5,1.5-.61,1.05-.21,2.12-.01,3.01.59.05.03.1.05.14.05.08,0,.15-.04.16-.05.15-.12-.3-.92-.37-1.05-.79-.85-1.6-1.11-1.98-1.2-.54-.13-.99-.11-1.43-.09-.81.04-1.48.21-1.94.36-.25-.1-.55-.22-.87-.19-.89.06-1.73.32-2.58.63-.73.26-1.39.63-1.97,1.15-.13,0-.3,0-.42.09l-.94.75c-.74.67-1.06,1.6-.9,2.59.09.56.36,1.03.62,1.51-.04.26-.11.58.08.86l.37.53c.68,1.31,1.39,2.31,2.75,2.94l.43,1.57c-.12.02-.23-.04-.26-.15-.09-.27-.33-.44-.53-.63l-.73-.67c-1.01-.93-1.86-1.99-2.75-3.05l-.69-.74c-.13-.14-.3-.15-.48-.13-1.43-1.07-3.2-1.02-4.73-.18l-1.29.05c-.62.02-1.22.08-1.82.23-.19.05-.29.22-.43.3-.29.17-.58.29-.85.51-.53.42-.97.93-1.35,1.48-.16.38-.31.76-.47,1.14-.06.11-.12.26-.17.45-.06.26-.06.49-.04.64.04-.02.11-.06.18-.11.34-.23.54-.48.59-.54.18-.21.67-.65,1.92-1.6l.6-.49c1.06.34,2.37.18,3.52,0,.47-.07.93-.15,1.35-.37.24-.12.44-.25.7-.32.42-.12.85-.21,1.3-.08.03.14.08.27.15.4-.89,0-1.57.34-2.23.92-.92.04-1.77.34-2.43.99-.91.25-1.78.54-2.63.95-.34.17-.65.35-.9.65l-.2.37c-.61.65-.69,2.13-.64,3.05,0,0-.03,1.12.52,2.14.06.11.15.17.15.17.03.02.15.1.23.06.11-.05.11-.28.11-.35,0-.05-.04-.96.47-2.65.11-.36.19-.69.24-1.08.49.06.91-.04,1.4-.17.18.66.76,2.75,1.13,3.05.05.04.18.15.27.11.08-.04.1-.17.1-.27.03-.49-.11-2.02-.14-2.32.28-.13.53-.32.8-.51.78-.54,1.55-1.14,1.98-1.98.15-.12.43-.14.61-.17.12.27.27.43.45.6.83.81,1.72,1.53,2.67,2.25-.1.05-.23.13-.39.24-.39.29-.65.6-.75.74-.55.77-.47,1.88-.46,2.03-.19.28-.55.9-.59,1.75-.03.51.07.94.16,1.22.05.42.22,1.45,1.04,2.26.33.33.67.53.81.6.65.35,1.26.41,1.6.42.04-.1.08-.24.04-.4-.09-.36-.54-.52-.66-.57-.41-.18-.94-.76-1.45-2.65.21-.74.36-1.46.39-2.22.01-.39.86-.69.8-1.11,1.52.83,3.18,1.2,4.8.6.33.24.68.31,1.06.39,1.65.94,3.43,1.54,5.28,1.89l.6.08c.35.14.68.31,1.07.32.37.52.74.95,1.25,1.3.89.61,1.85.96,2.96,1.11-.57.48-.09,1.07-.39,1.74l-.51,1.15-.67.12c-.31.14-3.5,1.11-3.34,1.81.09.38.89.62,1.26.69.41.08.75.04,1.05,0,1.1-.16,2.06-.68,2.59-1.01.12-.1.28-.24.45-.43.43-.49.61-.97.69-1.19.14-.4.18-.77.18-1.05.1-.11.86-.97.9-1.93.02-.45-.11-.85-.11-.85-.08-.26-.19-.45-.28-.59,1.16,0,2.3-.05,3.45-.2.28-.04.53-.09.78-.24l.41.5c-.1.51-.1,1.03.03,1.53l.34,1.26c.08.29.16.58.35.85-.19.36-.43.68-.72.98l-.68.7s-.28.19-.24.34c.03.12.26.14.36.15.64.07,2.12-1.23,2.7-1.76.31.38.59.73,1.04.97-.17.29-.32.58-.44.92-.85,2.41-1.13,2.39-1.25,2.5-.04.04-.21.19-.17.29.04.1.25.12.27.12,0,0,.12.02.21-.03.58-.33,1.11-.71,1.56-1.21.55-.61.99-1.27,1.31-2.03.15-.37.2-.71.18-1.09l.06-.39c-.19-1-1.09-2.29-1.74-3.13-.12-.15-.15-.27-.19-.45-.18-.79-.66-1.48-1.28-2-.2-.84-.52-1.55-1.24-2.06.22-.06.55-.1.87.03.49.22.6.72.87,1.28.72,1.5,2.11,2.28,2.63,2.64.37.26.74.48,1.21.56l.21.85c.27.85.37,1.4.41,1.75.03.29.1.58.13.87.01.12.03.33.14.58.05.11.1.19.13.25.27-.42.72-1.26.81-2.4Z"/>
  </g>
</svg>