<?xml version="1.0" encoding="UTF-8"?>
<svg id="_レイヤー_2" data-name="レイヤー 2" xmlns="http://www.w3.org/2000/svg" viewBox="0 0 482.56 389.79">
  <defs>
    <style>
      .cls-1, .cls-2 {
        fill: #6cb79f;
      }

      .cls-2, .cls-3, .cls-4 {
        stroke-width: .25px;
      }

      .cls-2, .cls-3, .cls-4, .cls-5, .cls-6, .cls-7 {
        stroke: #f1f2ec;
        stroke-miterlimit: 10;
      }

      .cls-3 {
        fill: #69aeb1;
      }

      .cls-4 {
        fill: #a4a985;
      }

      .cls-5 {
        fill: #93afc4;
      }

      .cls-5, .cls-6, .cls-7 {
        stroke-width: .75px;
      }

      .cls-6 {
        fill: #96af70;
      }

      .cls-7 {
        fill: #b8b662;
      }
    </style>
  </defs>
  <g id="_レイヤー_1-2" data-name="レイヤー 1">
    <path class="cls-1" d="M433.25,362.84c.11-.33.19-.66.23-1,.04-.02.07,0,.09.02,0,.01-.07.86-.32.99Z"/>
    <path class="cls-1" d="M465.87,362.38c-.29-.03-.4-.41-.51-.59l.51.59Z"/>
    <path class="cls-6" d="M.38,91.2v-.5C.38,41.04,37.55.38,90.2.38c32.44,0,51.9,11.23,68.62,27.2l-19.71,22.71c-14.22-12.97-28.94-21.46-49.15-21.46-32.94,0-57.38,27.2-57.38,61.38v.5c0,34.18,24.2,61.88,57.63,61.88,21.46,0,35.18-8.48,50.15-22.46l19.71,19.96c-18.21,18.96-38.17,30.94-70.86,30.94C38.05,181.02.38,141.35.38,91.2Z"/>
    <path class="cls-7" d="M159.81,91.2v-.5C159.81,41.54,197.74.38,251.38.38s91.07,40.67,91.07,89.82v.5c0,49.15-37.93,90.32-91.57,90.32s-91.07-40.67-91.07-89.82ZM310.27,91.2v-.5c0-33.93-24.71-61.88-59.38-61.88s-58.88,27.45-58.88,61.38v.5c0,33.93,24.7,61.88,59.38,61.88s58.88-27.45,58.88-61.38Z"/>
    <path class="cls-4" d="M347.2,153.08l18.46-21.96c16.72,14.47,33.68,22.71,55.14,22.71,18.96,0,30.94-8.98,30.94-21.96v-.5c0-12.47-6.98-19.21-39.42-26.7-37.18-8.98-58.14-19.96-58.14-52.15v-.5c0-29.94,24.95-50.65,59.63-50.65,25.45,0,45.66,7.73,63.37,21.96l-16.46,23.2c-15.72-11.73-31.44-17.96-47.41-17.96-17.96,0-28.44,9.23-28.44,20.71v.5c0,13.47,7.98,19.46,41.67,27.44,36.93,8.98,55.89,22.21,55.89,51.15v.49c0,32.69-25.7,52.15-62.38,52.15-26.7,0-51.9-9.23-72.85-27.94Z"/>
    <path class="cls-5" d="M12.6,361.47l18.46-21.96c16.72,14.47,33.68,22.71,55.14,22.71,18.96,0,30.94-8.98,30.94-21.96v-.5c0-12.47-6.98-19.21-39.42-26.7-37.18-8.98-58.14-19.96-58.14-52.15v-.5c0-29.94,24.95-50.65,59.63-50.65,25.45,0,45.66,7.73,63.37,21.96l-16.46,23.2c-15.72-11.73-31.44-17.96-47.41-17.96-17.96,0-28.44,9.23-28.44,20.71v.5c0,13.47,7.98,19.46,41.67,27.44,36.93,8.98,55.89,22.21,55.89,51.15v.49c0,32.69-25.7,52.15-62.38,52.15-26.7,0-51.9-9.23-72.85-27.94Z"/>
    <path class="cls-3" d="M185.76,214.76h129.5v27.45h-98.81v45.41h87.58v27.7h-87.58v46.66h100.05v27.44h-130.74v-174.65Z"/>
    <path class="cls-2" d="M349.44,214.76h129.5v27.45h-98.81v45.41h87.57v27.7h-87.57v46.66h100.05v27.44h-130.74v-174.65Z"/>
  </g>
</svg>